<?xml version="1.0" encoding="UTF-8"?>
<svg id="Layer_2" data-name="Layer 2" xmlns="http://www.w3.org/2000/svg" viewBox="0 0 330.86 318.4">
  <g id="Layer_1-2" data-name="Layer 1">
    <path d="M14.13,309.46c-4.19,3.76-8.55,7.01-14.13,8.94,9.32-28.08,15.77-41.73,29.5-67.29l-16.38-13.32,10.32-.54c1.31-.07,3.74-.88,4.56-1.77,4.96-5.34-6.95-10.19-2.24-29.65,4.13-17.08,8.92-32.93,16.85-48.75,29.2-58.23,84.87-90.01,146.34-109.8-.4,10.47.1,19.81,2.42,29.51,1.14-11.72,1.72-21.02,4.09-32.05l53.66-15c22.35-6.25,59.19-13.82,76.43-29.74,24.37,61.07-40.72,126.39-83.9,161.59l-40.52-4.01c-10.87-1.08-21.04-2.84-31.99-4.85,25.41,12.29,38.12,10.41,65.9,13.81-25.76,20.99-52.68,38.45-81.56,54.19-15.67,8.54-31.01,16.17-48.51,19.94-21.31,4.58-37.48-5.24-43.27-2.17-1.36.72-2.6,5.24-1.2,6.69l16.87,17.42c-14.27,2.47-27.5-.41-40.33-6.16-11.53,20.91-15.4,30-22.89,53.03ZM104.46,154.55c32.34-29.36,68.77-53.12,109.22-69.6l26.36-10.74c6.11-2.49,12.02-5.18,17.67-8.36-64.71,21.29-127.26,56.5-173.12,107.19,7.9-5.18,13.07-12.09,19.87-18.49Z"/>
  </g>
</svg>