<?xml version="1.0" encoding="UTF-8"?>
<svg id="Layer_2" data-name="Layer 2" xmlns="http://www.w3.org/2000/svg" viewBox="0 0 400.45 134.67">
  <defs>
    <style>
      .cls-1 {
        fill: #141412;
      }
    </style>
  </defs>
  <g id="Layer_1-2" data-name="Layer 1">
    <g>
      <path class="cls-1" d="M0,37.89c0-1.77,1.44-3.21,3.21-3.21h38.25c20.29,0,33.28,12.86,33.28,31.96,0,21.75-11.54,34.48-32.36,34.48h-13.98c-1.77,0-3.21,1.44-3.21,3.21v27.13c0,1.77-1.44,3.21-3.21,3.21H3.21c-1.77,0-3.21-1.44-3.21-3.21V37.89ZM37.37,80.04c7.03,0,12.07-4.24,12.07-12.2s-4.77-12.07-12.07-12.07h-8.96c-1.77,0-3.21,1.44-3.21,3.21v17.84c0,1.77,1.44,3.21,3.21,3.21h8.96Z"/>
      <path class="cls-1" d="M110.1,3.21v93.57c0,1.77-1.44,3.21-3.21,3.21h-18.33c-1.77,0-3.21-1.44-3.21-3.21V3.21c0-1.77,1.44-3.21,3.21-3.21h18.33c1.77,0,3.21,1.44,3.21,3.21Z"/>
      <path class="cls-1" d="M296.37,38.43h18.23c1.77,0,3.21,1.44,3.21,3.21v3.78h.24c3.73-4.58,10.83-8.19,19.38-8.19s13.36,3.07,17.04,6.95c1.35,1.42,3.44,1.73,4.82.34,4.8-4.84,10.99-7.29,17.85-7.29,13.49,0,23.3,8.55,23.3,22.17v37.39c0,1.77-1.44,3.21-3.21,3.21h-18.2c-1.77,0-3.21-1.44-3.21-3.21v-30.28c0-7.47-2.53-11.08-8.19-11.08s-8.43,3.25-8.43,10.12v31.24c0,1.77-1.44,3.21-3.21,3.21h-18.22c-1.77,0-3.21-1.44-3.21-3.21v-30.28c0-7.47-2.53-11.08-8.19-11.08s-8.55,3.25-8.55,10.12v31.24c0,1.77-1.44,3.21-3.21,3.21h-18.23c-1.77,0-3.21-1.44-3.21-3.21v-55.14c0-1.77,1.44-3.21,3.21-3.21Z"/>
      <path class="cls-1" d="M257.94,37.22h-40.38c-5.25,0-10.12.66-14.22,3.1-1.13.67-2.56.67-3.7,0-4.09-2.43-8.97-3.1-14.22-3.1h-40.38c-13.31,0-24.1,10.79-24.1,24.1v15.73c0,13.31,10.79,24.1,24.1,24.1h40.38c5.25,0,10.12-.66,14.22-3.1,1.13-.67,2.56-.67,3.7,0,4.09,2.43,8.97,3.1,14.22,3.1h40.38c13.31,0,24.1-10.79,24.1-24.1v-15.73c0-13.31-10.79-24.1-24.1-24.1ZM258.04,71.49c0,3.87-3.14,7.01-7.01,7.01h-33.96c-5.25,0-10.12-.66-14.22-3.1-1.13-.67-2.56-.67-3.7,0-4.09,2.43-8.97,3.1-14.22,3.1h-32.89c-3.87,0-7.01-3.14-7.01-7.01v-4.62c0-3.87,3.14-7.01,7.01-7.01h32.89c5.25,0,10.12.66,14.22,3.1,1.13.67,2.56.67,3.7,0,4.09-2.43,8.97-3.1,14.22-3.1h33.96c3.87,0,7.01,3.14,7.01,7.01v4.62Z"/>
    </g>
  </g>
</svg>